<svg xmlns="http://www.w3.org/2000/svg" xmlns:xlink="http://www.w3.org/1999/xlink" fill="none" version="1.1" width="294.875" height="337.949462890625" viewBox="0 0 294.875 337.949462890625"><g><g><g><path d="M188.383,12.7102C190.538,14.3672,192.618,16.081,194.688,17.843C195.554,18.4824,196.42,19.1218,197.312,19.7805C208.111,29.1578,216.1,41.742,222.438,54.4055C223.031,55.5724,223.625,56.7394,224.236,57.9417C226.074,61.565,227.885,65.2019,229.688,68.843C230.24,69.9573,230.792,71.0715,231.361,72.2195C241.869,93.528,252.274,115.141,260.938,137.281C261.201,137.953,261.464,138.625,261.736,139.318C266.498,151.908,267.956,165.206,263.008,177.976C258.981,186.721,254.16,193.914,247.508,200.882C245.633,202.717,245.633,202.717,244.688,204.843C245.513,205.096,246.339,205.349,247.19,205.609C251.163,207.011,254.866,208.738,258.648,210.581C259.398,210.944,260.147,211.307,260.919,211.68C262.499,212.446,264.077,213.213,265.654,213.982C268.045,215.147,270.44,216.303,272.836,217.458C274.378,218.207,275.92,218.956,277.461,219.706C278.519,220.216,278.519,220.216,279.599,220.736C291.326,226.481,291.326,226.481,294.688,229.843C295.259,236.116,294.317,239.54,290.375,244.531C289.696,245.43,289.696,245.43,289.002,246.347C287.588,248.199,286.143,250.023,284.688,251.843C284.26,252.386,283.833,252.929,283.392,253.489C272.375,267.394,259.704,280.011,245.431,290.549C243.653,291.869,241.9,293.218,240.148,294.573C231.225,301.398,221.83,307.124,212.006,312.558C209.854,313.751,207.716,314.965,205.578,316.183C193.466,322.959,180.654,327.953,167.688,332.843C166.889,333.148,166.09,333.453,165.267,333.768C163.269,334.524,161.263,335.253,159.25,335.968C157.674,336.529,157.674,336.529,156.066,337.101C146.952,339.103,139.527,337.329,130.875,334.218C129.761,333.824,128.648,333.43,127.5,333.024C96.7359,321.764,67.5062,305.268,42.6875,283.843C41.9076,283.174,41.1277,282.505,40.3242,281.816C27.8756,270.875,16.4914,259.212,6.6875,245.843C6.02492,244.964,5.36235,244.085,4.67969,243.179C2.34261,239.929,0.833832,237.535,0,233.593C1.04704,229.405,3.76317,227.021,7.42172,224.781C9.41907,223.737,11.4377,222.764,13.4805,221.812C14.2265,221.453,14.9726,221.095,15.7413,220.726C18.1146,219.588,20.4945,218.465,22.875,217.343C24.4543,216.59,26.033,215.836,27.6113,215.081C29.9009,213.987,32.1909,212.893,34.4831,211.804C39.9203,209.22,45.3228,206.574,50.6875,203.843C49.8909,202.899,49.0942,201.956,48.2734,200.984C41.9298,193.346,36.4413,186.12,32.6875,176.843C32.3163,175.95,31.945,175.056,31.5625,174.136C30.3652,169.63,30.3192,165.362,30.3125,160.718C30.288,159.844,30.2635,158.97,30.2383,158.07C30.1809,144.994,36.4962,133.282,41.75,121.593C42.0919,120.828,42.4337,120.064,42.786,119.276C74.8412,47.6318,74.8412,47.6318,89.6875,29.843C90.3926,28.9755,91.0977,28.1079,91.8242,27.2141C116.571,-1.88664,156.864,-9.12424,188.383,12.7102Z" fill="#020302" fill-opacity="1" style="mix-blend-mode:passthrough"/></g></g><g><path d="M179.68718359375,22.843046020507813C191.39418359375,31.455546020507814,207.10618359375,45.79134602050781,209.68718359375,60.84304602050781C210.34718359375,60.84304602050781,211.00718359375,60.84304602050781,211.68718359375,60.84304602050781C218.22418359375,74.54474602050782,224.63618359375,88.30184602050781,230.96618359375,102.10034602050781C232.50418359375,105.44954602050781,234.05418359375,108.79344602050782,235.60418359375,112.1369460205078C236.95318359375,115.05054602050781,238.29518359375,117.9665460205078,239.63618359375,120.88454602050781C240.28318359375,122.28854602050781,240.93318359375,123.69154602050781,241.58518359375,125.09354602050782C256.06418359375,156.2195460205078,256.06418359375,156.2195460205078,251.50018359375,171.6555460205078C248.47618359375,179.1305460205078,243.65718359375,185.4145460205078,238.56218359375,191.59254602050783C237.99618359375,192.2835460205078,237.43018359375,192.9755460205078,236.84618359375,193.68654602050782C231.67418359375,199.9505460205078,226.28218359375,205.95454602050782,220.68718359375,211.84254602050783C219.96418359375,212.6305460205078,219.24118359375,213.41854602050782,218.49618359375,214.22954602050783C212.16218359375,220.91254602050782,203.56118359375,228.8845460205078,194.68718359375,231.84254602050783C195.33418359375,226.83054602050782,197.12118359375,222.1775460205078,199.68718359375,217.84254602050783C202.37518359375,215.84254602050783,202.37518359375,215.84254602050783,205.68718359375,213.84254602050783C210.61518359375,209.3395460205078,215.08318359375,204.47254602050782,219.33918359375,199.3395460205078C221.23518359375,197.23554602050783,223.48118359375,195.60854602050782,225.68718359375,193.84254602050783C226.01718359375,192.85254602050782,226.34718359375,191.8625460205078,226.68718359375,190.84254602050783C228.50018359375,189.09254602050783,228.50018359375,189.09254602050783,230.68718359375,187.84254602050783C232.93718359375,188.1555460205078,232.93718359375,188.1555460205078,234.68718359375,188.84254602050783C234.94418359375,188.3265460205078,235.20018359375,187.8095460205078,235.46418359375,187.27654602050782C236.42418359375,185.36654602050783,237.39818359375,183.4645460205078,238.37918359375,181.5655460205078C239.00218359375,180.3455460205078,239.62618359375,179.1255460205078,240.25018359375,177.9055460205078C240.56618359375,177.2975460205078,240.88318359375,176.6895460205078,241.20918359375,176.0635460205078C245.80318359375,167.0215460205078,245.89218359375,157.32954602050782,243.31218359375,147.59254602050783C239.17118359375,135.3605460205078,230.99618359375,124.56854602050781,222.68718359375,114.84254602050781C221.78418359375,113.74454602050781,220.88118359375,112.64554602050781,219.98018359375,111.5461460205078C203.40518359375,91.5140460205078,179.78718359375,70.66594602050782,152.68718359375,67.84304602050781C132.53318359374998,66.18374602050781,112.26238359375,78.30494602050781,97.28888359375,90.61644602050781C80.03728359375,105.3813460205078,55.404583593750004,127.99754602050781,51.68731359375,151.84254602050783C50.89141359375,162.5765460205078,51.36804359375,171.19354602050782,56.687283593749996,180.84254602050783C57.17588359375,181.7655460205078,57.66438359375,182.6885460205078,58.16778359375,183.63954602050782C58.66918359375,184.36654602050783,59.17068359375,185.0935460205078,59.687283593749996,185.84254602050783C60.677283593750005,186.00754602050782,61.66728359375,186.1725460205078,62.687283593749996,186.34254602050783C63.677283593750005,186.50754602050782,64.66728359375,186.6725460205078,65.68728359375,186.84254602050783C67.31228359375,189.1555460205078,67.31228359375,189.1555460205078,68.68728359375,191.84254602050783C69.99708359375,193.19954602050782,71.33538359375,194.5285460205078,72.68728359375,195.84254602050783C73.72398359375,197.0465460205078,74.75458359375,198.2555460205078,75.78108359375,199.46754602050783C80.38588359375001,204.75854602050782,85.53788359375,209.3965460205078,90.72248359375,214.1065460205078C96.67918359375,219.60354602050782,99.65498359375,223.8695460205078,101.68728359375001,231.84254602050783C83.62198359375,225.31654602050781,67.23408359375,204.5815460205078,55.93488359375,189.49154602050783C54.77008359375,187.9525460205078,53.56788359375,186.44154602050781,52.36308359375,184.9325460205078C46.42617359375,177.30554602050782,41.63413959375,168.33054602050782,42.33062739375,158.35254602050782C43.91301359375,147.2205460205078,49.15350359375,136.91954602050782,53.874783593749996,126.84254602050781C54.57658359375,125.3295460205078,55.27758359375,123.81554602050781,55.97788359375,122.30154602050781C57.44918359375,119.12254602050781,58.924683593750004,115.94454602050781,60.40268359375,112.76854602050781C62.72418359375,107.77224602050781,65.01878359375,102.76394602050782,67.30838359375,97.75314602050781C68.06918359375,96.08974602050782,68.82998359375,94.42634602050781,69.59088359375,92.76294602050781C70.68838359375,90.36334602050782,71.78578359375,87.96364602050781,72.88198359375,85.56344602050781C76.99198359375,76.57114602050781,81.18478359375,67.64744602050781,85.68728359375001,58.84304602050781C86.34728359375,58.84304602050781,87.00728359375,58.84304602050781,87.68728359375001,58.84304602050781C88.07208359375,57.535946020507815,88.07208359375,57.535946020507815,88.46468359375001,56.20234602050781C94.64508359375,39.22114602050782,110.82448359375,24.687046020507815,126.68728359375,16.84301602050781C144.69718359375,9.121376020507812,163.56118359375,12.070165020507812,179.68718359375,22.843046020507813Z" fill="#457A54" fill-opacity="1" style="mix-blend-mode:passthrough"/></g><g><path d="M188.38279296875,12.7102C190.53779296875,14.3672,192.61879296875,16.081,194.68779296875,17.843C195.55379296875,18.4824,196.41979296875,19.1218,197.31279296875,19.7805C208.11079296875,29.1578,216.09979296875,41.742,222.43779296875,54.4055C223.03079296875,55.5724,223.62479296875,56.7394,224.23579296875,57.9417C226.07479296875,61.565,227.88479296875,65.2019,229.68779296875,68.843C230.23979296875,69.9573,230.79179296875,71.0715,231.36079296875,72.2195C241.86879296875,93.528,252.27379296875,115.141,260.93779296875,137.281C261.33279296875,138.289,261.33279296875,138.289,261.73579296875,139.318C266.50079296875003,151.915,267.93479296875,165.177,263.02379296875,177.96C259.49979296875,185.564,255.36179296875,192.653,249.68779296875,198.843C249.23379296875,198.369,248.77979296875,197.894,248.31279296875,197.406C246.38979296875,195.557,245.37679296875,194.843,242.68779296875,194.843C242.02779296875,196.493,241.36779296875,198.143,240.68779296875,199.843C239.69779296875,199.513,238.70779296875,199.183,237.68779296875,198.843C238.01779296875,197.523,238.34779296875,196.203,238.68779296875,194.843C238.39879296875,195.462,238.10979296875,196.081,237.81279296875,196.718C236.47379296875,199.246,234.70279296875,200.828,232.68779296875,202.843C230.56279296875,202.468,230.56279296875,202.468,228.68779296875,201.843C229.23279296875,201.26,229.77779296875,200.678,230.33979296875,200.077C242.09079296875,187.302,252.29979296875,175.675,252.00879296875,157.643C250.94879296875,145.109,244.20479296875,132.904,238.93779296875,121.656C238.21779296875,120.104,237.49879296875,118.552,236.78079296875,117C235.71779296875,114.702,234.65479296875,112.405,233.58779296875,110.109C230.89779296875,104.316,228.27779296875,98.4941,225.68779296875,92.6555C222.74379296875,86.038,219.61979296875,79.5364,216.24779296875,73.1255C214.15479296875,69.0763,212.80579296875,65.234,211.68779296875,60.843C211.02779296875,60.843,210.36779296875,60.843,209.68779296875,60.843C209.34679296875,60.1766,209.00679296875,59.5101,208.65579296875,58.8235C204.89979296875,51.6802,200.63779296875,45.2132,195.68779296875,38.843C195.14479296875,38.1327,194.60179296875,37.4225,194.04279296875,36.6907C186.02579296875,26.8397,175.39579296875,20.43,163.68779296875,15.843C163.01579296875,15.5762,162.34379296875,15.3093,161.65179296875,15.0344C149.16379296875,11.0547,135.11179296875,13.8735,123.63659296875,19.2805C107.21069296875,28.1433,95.96129296875,42.3601,87.68739296875,58.843C87.02739296875001,58.843,86.36739296875001,58.843,85.68739296875,58.843C85.33739296875001,60.0244,85.33739296875001,60.0244,84.98039296875001,61.2297C83.31569296875,65.8819,81.17019296875,70.2212,78.99989296875,74.6555C72.54909296875,87.9859,66.44749296875,101.468,60.35419296875,114.964C58.47699296875,119.117,56.573992968750005,123.256,54.64829296875,127.386C50.31109296875,136.711,46.12359296875,145.807,43.687392968750004,155.843C43.49019296875,156.654,43.292892968749996,157.465,43.08969296875,158.3C42.466092968750004,162.242,42.77669296875,166.126,42.94519296875,170.101C42.687392968750004,172.843,42.687392968750004,172.843,41.30459296875,174.71C39.687392968750004,175.843,39.687392968750004,175.843,37.687392968750004,175.843C37.687392968750004,175.183,37.687392968750004,174.523,37.687392968750004,173.843C36.36738296875,173.843,35.04739296875,173.843,33.687392968750004,173.843C33.19240296875,174.833,33.19240296875,174.833,32.687392968750004,175.843C30.13677996875,170.956,30.32005306875,166.157,30.31239316875,160.781C30.28790286875,159.902,30.26341246875,159.024,30.23817443875,158.118C30.18101496875,145.018,36.48604296875,133.304,41.749892968750004,121.593C42.09179296875,120.828,42.43359296875,120.064,42.78589296875,119.276C74.84109296874999,47.6318,74.84109296874999,47.6318,89.68739296875,29.843C90.74509296875,28.5417,90.74509296875,28.5417,91.82409296875,27.2141C116.57089296875,-1.88664,156.86479296875,-9.12424,188.38279296875,12.7102Z" fill="#030403" fill-opacity="1" style="mix-blend-mode:passthrough"/></g><g><path d="M275.6875,221.843017578125C276.6775,222.173017578125,277.6675,222.503017578125,278.6875,222.843017578125C280.1725,222.348017578125,280.1725,222.348017578125,281.6875,221.843017578125C284.3165,222.987547578125,284.3165,222.987547578125,287.2495,224.655517578125C288.2205,225.198217578125,289.1915,225.740907578125,290.1915,226.300047578125C292.6875,227.843017578125,292.6875,227.843017578125,294.6875,229.843017578125C295.3555,236.115217578125,294.3085,239.550117578125,290.3755,244.530517578125C289.6955,245.429917578125,289.6955,245.429917578125,289.0025,246.347417578125C287.5875,248.199017578125,286.1435,250.023217578125,284.6875,251.843017578125C284.2605,252.386217578125,283.8325,252.929417578125,283.3925,253.48901757812502C272.3755,267.394217578125,259.70349999999996,280.010617578125,245.4305,290.548617578125C243.6525,291.868917578125,241.8995,293.218317578125,240.1485,294.573517578125C231.2245,301.397617578125,221.8295,307.124217578125,212.0055,312.558317578125C209.8535,313.750817578125,207.7155,314.965017578125,205.5785,316.18281757812497C193.4655,322.959017578125,180.6545,327.953017578125,167.6875,332.843017578125C166.8885,333.148017578125,166.0905,333.453017578125,165.2675,333.768017578125C163.2685,334.524017578125,161.2635,335.25301757812497,159.2495,335.968017578125C158.1995,336.342017578125,157.1485,336.716017578125,156.0665,337.101017578125C146.9525,339.103017578125,139.5265,337.329017578125,130.8755,334.218017578125C129.7615,333.824017578125,128.64749999999998,333.430017578125,127.5005,333.024017578125C96.7359,321.764217578125,67.5062,305.268317578125,42.6875,283.843017578125C41.5177,282.83951757812497,41.5177,282.83951757812497,40.3242,281.81571757812503C29.9194,272.671017578125,19.866500000000002,262.958417578125,11.25,252.093017578125C10.78345,251.508817578125,10.31689,250.924617578125,9.83618,250.322717578125C6.6875,246.227217578125,6.6875,246.227217578125,6.6875,242.843017578125C9.73856,243.860017578125,10.51395,244.669517578125,12.6875,246.843017578125C13.3475,246.843017578125,14.00751,246.843017578125,14.6875,246.843017578125C15.01749,247.503017578125,15.3475,248.163017578125,15.6875,248.843017578125C17.415300000000002,247.872817578125,17.415300000000002,247.872817578125,18.6875,245.843017578125C18.6548,243.076917578125,18.1815,240.582717578125,17.6875,237.843017578125C20.7743,240.736917578125,23.3819,243.72011757812498,25.9375,247.093017578125C36.1667,260.004917578125,48.4523,271.107917578125,61.6875,280.843017578125C62.5602,281.510717578125,63.4329,282.178517578125,64.332,282.866417578125C84.4939,298.042017578125,106.4563,309.237117578125,129.6875,318.843017578125C127.7075,312.573017578125,125.7275,306.303017578125,123.6875,299.843017578125C124.3475,299.18301757812503,125.0075,298.523017578125,125.6875,297.843017578125C125.6875,296.523017578125,125.6875,295.203017578125,125.6875,293.843017578125C126.9775,292.467417578125,128.3145,291.135317578125,129.6875,289.843017578125C130.9225,287.709917578125,130.9225,287.709917578125,131.6875,285.843017578125C132.3475,285.843017578125,133.0075,285.843017578125,133.6875,285.843017578125C135.0785,290.252917578125,136.4655,294.663717578125,137.8505,299.075417578125C138.3205,300.573117578125,138.7915,302.070517578125,139.2645,303.567617578125C139.9465,305.731617578125,140.6255,307.896617578125,141.3045,310.061817578125C141.5135,310.72041757812497,141.7215,311.37911757812503,141.9365,312.057717578125C143.3615,316.616817578125,144.5625,321.200517578125,145.6875,325.843017578125C148.1645,325.38501757812503,148.1645,325.38501757812503,150.6875,323.843017578125C151.8495,321.295117578125,152.6385,319.100217578125,153.3635,316.428917578125C153.5785,315.69931757812503,153.7935,314.969717578125,154.0145,314.217917578125C154.6955,311.889717578125,155.3475,309.554517578125,155.9995,307.218017578125C156.4575,305.636717578125,156.9165,304.05601757812497,157.3765,302.475817578125C158.5015,298.60401757812497,159.6015,294.725817578125,160.6875,290.843017578125C164.2955,290.843017578125,167.4405,291.219417578125,170.6875,292.843017578125C171.0175,291.853017578125,171.3475,290.863017578125,171.6875,289.843017578125C172.0175,290.50301757812497,172.3475,291.163017578125,172.6875,291.843017578125C173.3475,292.173017578125,174.0075,292.50301757812497,174.6875,292.843017578125C172.0475,301.423017578125,169.4075,310.00301757812497,166.6875,318.843017578125C200.1805,304.415117578125,230.2215,287.119317578125,256.6875,261.843017578125C257.6135,260.970317578125,258.5385,260.097617578125,259.4925,259.198517578125C266.6425,252.280917578125,272.7035,244.771917578125,278.6875,236.843017578125C278.2375,236.250017578125,277.7875,235.657117578125,277.3245,235.046117578125C275.3415,232.377517578125,273.5165,229.618327578125,271.6875,226.843017578125C273.4375,222.968017578125,273.4375,222.968017578125,275.6875,221.843017578125Z" fill="#030403" fill-opacity="1" style="mix-blend-mode:passthrough"/></g><g><path d="M251.6875,221.843017578125C252.8012,222.405048578125,253.91500000000002,222.967077578125,255.0625,223.546137578125C259.9039,225.966847578125,264.7919,228.284337578125,269.6875,230.593017578125C270.5575,231.004227578125,271.4275,231.415437578125,272.3245,231.839107578125C274.4445,232.841217578125,276.5665,233.842517578125,278.6875,234.843017578125C278.6875,239.280517578125,275.9585,241.685217578125,273.2495,244.968017578125C272.3845,246.021217578125,272.3845,246.021217578125,271.50149999999996,247.095717578125C260.5727,260.150117578125,248.43880000000001,271.814917578125,234.6875,281.843017578125C234.10899999999998,282.271617578125,233.5306,282.700217578125,232.9346,283.141817578125C224.7874,289.172417578125,216.4107,294.670217578125,207.6875,299.843017578125C206.1793,300.776917578125,206.1793,300.776917578125,204.6406,301.729717578125C176.17635,318.843017578125,176.17635,318.843017578125,166.6875,318.843017578125C168.71149,307.578017578125,171.96075,296.656517578125,175.21893,285.697617578125C176.2168,282.339817578125,177.1944,278.978817578125,178.1262,275.602017578125C179.2116,271.671017578125,180.3782,267.768417578125,181.5508,263.862517578125C181.8711,262.661417578125,182.1915,261.460217578125,182.5216,260.222617578125C184.6637,253.373717578125,186.7192,250.216517578125,193.1335,246.779317578125C194.2241,246.293517578125,195.3148,245.807717578125,196.4384,245.307217578125C199.80360000000002,243.790717578125,202.6577,241.939617578125,205.6875,239.843017578125C206.3475,239.51301757812502,207.0075,239.183017578125,207.6875,238.843017578125C207.8319,239.977417578125,207.9762,241.111717578125,208.125,242.280517578125C208.29919999999998,245.650817578125,208.29919999999998,245.650817578125,209.6875,246.843017578125C213.04,247.135417578125,213.04,247.135417578125,216.6875,245.843017578125C219.0785,243.164817578125,220.6861,240.122317578125,222.375,236.968017578125C223.2883,235.320717578125,224.2087,233.677317578125,225.1367,232.038317578125C225.7297,230.940287578125,225.7297,230.940287578125,226.3347,229.820067578125C227.8511,227.603907578125,229.47129999999999,226.333397578125,231.6875,224.843017578125C232.6775,225.338017578125,232.6775,225.338017578125,233.6875,225.843017578125C233.0275,226.833017578125,232.3675,227.823017578125,231.6875,228.843017578125C232.3475,228.183017578125,233.0075,227.523017578125,233.6875,226.843017578125C236.3125,226.718017578125,236.3125,226.718017578125,238.6875,226.843017578125C238.7302,228.509137578125,238.72809999999998,230.176847578125,238.6875,231.843017578125C238.35750000000002,232.173017578125,238.0275,232.503017578125,237.6875,232.843017578125C237.45010000000002,234.945717578125,237.2182,237.049217578125,237.0156,239.155517578125C236.5494,242.974117578125,235.7235,246.705517578125,234.8945,250.460217578125C234.4144,253.110017578125,234.4144,253.110017578125,236.6875,255.843017578125C240.1525,255.348017578125,240.1525,255.348017578125,243.6875,254.843017578125C247.398,244.027317578125,249.5848,233.060917578125,251.6875,221.843017578125Z" fill="#467854" fill-opacity="1" style="mix-blend-mode:passthrough"/></g><g><path d="M56.6875,219.843017578125C59.047,222.202547578125,59.1789,223.621977578125,59.6875,226.843017578125C60.0175,226.183017578125,60.3475,225.523017578125,60.6875,224.843017578125C61.6775,225.503017578125,62.6675,226.163017578125,63.6875,226.843017578125C64.67750000000001,226.843017578125,65.66749999999999,226.843017578125,66.6875,226.843017578125C71.811,231.966517578125,75.36500000000001,238.44701757812498,78.6875,244.843017578125C78.6875,245.503017578125,78.6875,246.163017578125,78.6875,246.843017578125C84.0092,247.138617578125,84.0092,247.138617578125,88.6875,244.843017578125C89.8919,246.372917578125,91.0964,247.902917578125,92.3008,249.432817578125C93.7443,251.114617578125,93.7443,251.114617578125,96.6875,251.843017578125C97.0175,252.503017578125,97.3475,253.163017578125,97.6875,253.843017578125C100.2148,254.498617578125,100.2148,254.498617578125,102.6875,254.843017578125C103.0175,255.833017578125,103.3475,256.823017578125,103.6875,257.843017578125C104.265,257.987417578125,104.8425,258.131717578125,105.4375,258.280517578125C108.6468,259.082817578125,110.2832,260.58111757812503,112.6875,262.843017578125C114.062,265.777817578125,114.062,265.777817578125,115.1172,269.206317578125C115.4115,270.13751757812497,115.4115,270.13751757812497,115.7117,271.087617578125C116.345,273.105617578125,116.9535,275.130017578125,117.5625,277.155517578125C117.9945,278.55011757812497,118.4275,279.944217578125,118.8625,281.33791757812503C119.9505,284.83681757812496,121.0175,288.341417578125,122.0805,291.847917578125C123.0035,294.881717578125,123.9475,297.90901757812503,124.8905,300.936817578125C126.1045,304.857417578125,127.3175,308.778217578125,128.5075,312.706317578125C128.7375,313.462117578125,128.9675,314.217917578125,129.20350000000002,314.996617578125C129.6875,316.843017578125,129.6875,316.843017578125,129.6875,318.843017578125C102.8658,310.405817578125,78.52770000000001,295.315117578125,56.6875,277.843017578125C55.6601,277.023217578125,54.6327,276.203317578125,53.5742,275.358617578125C39.9488,264.261917578125,26.32543,251.643317578125,16.6875,236.843017578125C16.6875,236.183017578125,16.6875,235.523017578125,16.6875,234.843017578125C17.579533,234.433117578125,18.47156,234.023217578125,19.39062,233.600817578125C20.56109,233.062017578125,21.73156,232.523217578125,22.9375,231.968017578125C24.09766,231.434317578125,25.25781,230.900717578125,26.45312,230.350817578125C28.8868,229.216297578125,31.2887,228.047427578125,33.6875,226.843017578125C35.2244,226.124397578125,36.7662,225.416177578125,38.3125,224.718017578125C39.088499999999996,224.364817578125,39.8645,224.011607578125,40.664100000000005,223.647707578125C42.6875,222.843017578125,42.6875,222.843017578125,44.6875,222.843017578125C44.8577,223.991567578125,45.0278,225.140127578125,45.2031,226.323487578125C46.5328,234.955417578125,48.1226,243.14481757812501,50.918,251.436817578125C51.6875,253.843017578125,51.6875,253.843017578125,51.6875,255.843017578125C55.1041,256.009817578125,55.1041,256.009817578125,58.6875,255.843017578125C60.881,254.099217578125,60.881,254.099217578125,60.7695,252.022717578125C60.0486,245.858317578125,58.9883,239.799617578125,57.7043,233.729217578125C56.7453,228.987727578125,56.5644,224.650907578125,56.6875,219.843017578125Z" fill="#477955" fill-opacity="1" style="mix-blend-mode:passthrough"/></g><g><path d="M137.6875,150.843017578125C137.7481,152.035397578125,137.8087,153.227787578125,137.8711,154.456297578125C137.9555,156.022717578125,138.0402,157.589117578125,138.125,159.155517578125C138.1643,159.941197578125,138.2036,160.726887578125,138.2441,161.536417578125C138.286,162.293717578125,138.3279,163.051017578125,138.3711,163.831317578125C138.4261,164.876017578125,138.4261,164.876017578125,138.4822,165.94191757812501C138.6433,168.064717578125,138.6433,168.064717578125,139.6875,170.843017578125C142.458,171.766517578125,144.2544,172.006317578125,147.125,172.030517578125C148.2678,172.051817578125,148.2678,172.051817578125,149.4336,172.073517578125C151.9608,171.815117578125,153.5417,171.187017578125,155.6875,169.843017578125C157.3373,166.543417578125,157.0701,162.851717578125,157.25,159.218017578125C157.3148,158.015317578125,157.3148,158.015317578125,157.3809,156.788327578125C157.487,154.806767578125,157.58780000000002,152.824917578125,157.6875,150.843017578125C158.6517,151.336728578125,159.6159,151.830439578125,160.6094,152.339107578125C161.8853,152.986457578125,163.16140000000001,153.633587578125,164.4375,154.280517578125C165.0717,154.606007578125,165.70589999999999,154.931497578125,166.3594,155.266847578125C173.4607,158.854477578125,179.34820000000002,160.060147578125,187.125,157.593017578125C191.5061,156.019727578125,195.5728,154.012557578125,199.6875,151.843017578125C196.2917,173.839817578125,185.7835,195.356017578125,167.6875,208.843017578125C158.7682,214.846017578125,149.7006,216.205317578125,139.1602,214.413317578125C131.5853,212.256717578125,125.781,208.184017578125,121.5898,201.495317578125C114.29868,187.969817578125,108.83718,172.871517578125,105.6875,157.843017578125C106.593712,157.950007578125,107.49992,158.056997578125,108.43359,158.167237578125C119.4286,159.249287578125,126.0528,157.954457578125,135.1563,151.831298578125C136.6875,150.843017578125,136.6875,150.843017578125,137.6875,150.843017578125Z" fill="#DCE9E3" fill-opacity="1" style="mix-blend-mode:passthrough"/></g><g><path d="M186.6875,43.84302411621094C193.097,47.12593911621094,197.4895,51.31033911621094,201.1836,57.42501911621093C202.9178,60.21321911621094,204.8462,62.76191911621093,206.875,65.34301911621094C207.5286,66.17831911621093,208.1821,67.01361911621093,208.8555,67.87431911621094C210.6213,70.08711911621094,210.6213,70.08711911621094,213.6875,70.84301911621094C213.1719,69.74991911621093,212.6562,68.65681911621094,212.125,67.53051911621094C210.6875,63.84301911621094,210.6875,63.84301911621094,211.6875,60.84301911621094C218.22469999999998,74.54471911621094,224.636,88.30191911621094,230.9663,102.10031911621094C232.5045,105.44951911621094,234.0539,108.79341911621094,235.6044,112.13691911621093C236.9535,115.05031911621094,238.2955,117.96691911621093,239.6362,120.88421911621094C240.2832,122.28871911621094,240.93290000000002,123.69191911621094,241.5855,125.09381911621094C256.0648,156.21921911621092,256.0648,156.21921911621092,251.5,171.65521911621093C248.4767,179.13121911621093,243.6576,185.41421911621094,238.5625,191.59321911621095C237.9963,192.28421911621095,237.4301,192.97521911621095,236.8467,193.68721911621094C231.674,199.95021911621095,226.2828,205.95421911621094,220.6875,211.84321911621095C219.9643,212.63021911621092,219.2412,213.41821911621093,218.4961,214.23021911621095C212.1628,220.91321911621094,203.5615,228.88521911621095,194.6875,231.84321911621095C195.33429999999998,226.83021911621094,197.1211,222.17821911621093,199.6875,217.84321911621095C202.375,215.84321911621095,202.375,215.84321911621095,205.6875,213.84321911621095C210.61509999999998,209.34021911621093,215.0837,204.47221911621094,219.3398,199.33921911621093C221.2351,197.23521911621094,223.4811,195.60821911621093,225.6875,193.84321911621095C226.01749999999998,192.85321911621094,226.3475,191.86321911621093,226.6875,190.84321911621095C228.5,189.09321911621095,228.5,189.09321911621095,230.6875,187.84321911621095C232.9375,188.15521911621093,232.9375,188.15521911621093,234.6875,188.84321911621095C234.94400000000002,188.32621911621095,235.2005,187.80921911621093,235.4648,187.27621911621094C236.42430000000002,185.36721911621095,237.3988,183.46521911621093,238.3789,181.56521911621093C239.0027,180.34521911621093,239.6264,179.12521911621093,240.25,177.90521911621093C240.5665,177.29821911621093,240.8829,176.69021911621093,241.209,176.06421911621095C245.8031,167.02221911621092,245.8921,157.33021911621094,243.3125,147.59321911621095C239.1713,135.36041911621095,230.996,124.56861911621094,222.6875,114.84301911621094C221.7841,113.74491911621094,220.8818,112.64591911621093,219.9805,111.54611911621093C210.4787,100.06291911621094,200.4548,90.07721911621094,187.7117,82.22681911621095C183.92003,79.85901911621093,181.27081,77.49571911621094,178.6875,73.84301911621094C179.32688,73.57491911621094,179.96625,73.30681911621093,180.625,73.03051911621094C183.01882,71.95631911621093,183.01882,71.95631911621093,183.6875,68.84301911621094C184.3475,69.17301911621094,185.0075,69.50301911621094,185.6875,69.84301911621094C185.6875,70.83301911621093,185.6875,71.82301911621093,185.6875,72.84301911621094C186.8938,70.51091911621094,187.853,68.34661911621095,188.6875,65.84301911621094C188.0275,64.85301911621093,187.3675,63.863019116210936,186.6875,62.84301911621094C186.46062,61.87361911621094,186.23375,60.90431911621094,186,59.90551911621094C184.56721,56.562319116210936,184.18092000000001,56.31471911621094,181.125,54.78051911621094C177.6875,52.84301911621094,177.6875,52.84301911621094,176.625,50.34301911621094C176.6943007,47.570979116210935,177.136889,46.12813911621094,178.6875,43.84302411621094C181.63348,42.370032116210936,183.52485,43.09887011621094,186.6875,43.84302411621094Z" fill="#497857" fill-opacity="1" style="mix-blend-mode:passthrough"/></g><g><path d="M122.6875,251.843017578125C123.449336,252.252939578125,124.21117,252.662861578125,124.99609,253.085207578125C138.5503,260.158447578125,149.0205,261.425247578125,163.6875,256.843017578125C166.7579,255.634757578125,169.7227,254.286907578125,172.6875,252.843017578125C171.1764,260.201877578125,169.1103,267.301617578125,166.8789,274.471917578125C166.5115,275.661017578125,166.1441,276.850117578125,165.7656,278.075217578125C164.7946,281.214517578125,163.8202,284.352717578125,162.84449999999998,287.490617578125C162.2502,289.404917578125,161.6582,291.320017578125,161.0671,293.235317578125C159.9238,296.940017578125,158.777,300.643717578125,157.6289,304.346917578125C157.2788,305.480417578125,156.9287,306.614017578125,156.56799999999998,307.781917578125C155.9155,309.877117578125,155.2543,311.969617578125,154.5823,314.058617578125C154.0166,315.819017578125,153.4704,317.585817578125,152.95159999999998,319.360517578125C152.2537,321.561517578125,152.2537,321.561517578125,150.6875,324.843017578125C148.0896,325.548117578125,148.0896,325.548117578125,145.6875,325.843017578125C142.5435,317.482017578125,139.7894,309.024317578125,137.1406,300.49531757812497C136.7205,299.148217578125,136.3002,297.801117578125,135.8798,296.454017578125C135.0075,293.656917578125,134.1371,290.859217578125,133.2681,288.061017578125C132.1532,284.472017578125,131.03336,280.884617578125,129.91213,277.297617578125C129.0471,274.528217578125,128.18475,271.758017578125,127.3232,268.987517578125C126.91098,267.663217578125,126.49791,266.339017578125,126.08396,265.015217578125C125.5093,263.176017578125,124.93863,261.335607578125,124.36816,259.495117578125C124.0427,258.449077578125,123.71723,257.403037578125,123.381897,256.325297578125C122.6875,253.843017578125,122.6875,253.843017578125,122.6875,251.843017578125Z" fill="#DBE8E2" fill-opacity="1" style="mix-blend-mode:passthrough"/></g><g><path d="M157.68723046875,150.843017578125C158.65153046875,151.336728578125,159.61573046875,151.830439578125,160.60913046875,152.339107578125C161.88513046875,152.986457578125,163.16113046875,153.633587578125,164.43723046875,154.280517578125C165.07153046875,154.606007578125,165.70573046875,154.931497578125,166.35913046875,155.266847578125C173.46043046875,158.854477578125,179.34793046875,160.060147578125,187.12473046875,157.593017578125C191.50593046875,156.019727578125,195.57263046875,154.012557578125,199.68723046875,151.843017578125C196.75453046875,170.840317578125,188.54433046875,187.718417578125,175.68723046875,201.843017578125C171.81223046875,200.093017578125,171.81223046875,200.093017578125,170.68723046875,197.843017578125C171.34723046875,197.51301757812502,172.00723046875,197.183017578125,172.68723046875,196.843017578125C172.02723046875,196.843017578125,171.36723046875,196.843017578125,170.68723046875,196.843017578125C170.68723046875,196.183017578125,170.68723046875,195.523017578125,170.68723046875,194.843017578125C169.69723046875,194.843017578125,168.70723046875,194.843017578125,167.68723046875,194.843017578125C167.06853046875,194.162417578125,166.44973046875,193.481717578125,165.81223046875,192.780517578125C165.11103046875,192.141117578125,164.40973046875,191.501717578125,163.68723046875,190.843017578125C161.30463046875,191.192417578125,161.30463046875,191.192417578125,158.68723046875,191.843017578125C154.96013046875,192.078017578125,151.23363046875,192.073717578125,147.49973046875,192.093017578125C145.98483046875,192.123917578125,145.98483046875,192.123917578125,144.43923046875,192.155517578125C143.47565046875,192.160717578125,142.51208046875,192.165817578125,141.51931046875,192.171117578125C140.63992046875,192.180517578125,139.76054046875,192.189817578125,138.85451046875,192.199417578125C138.13932046875,192.081817578125,137.42413046875,191.964217578125,136.68727046875,191.843017578125C134.68727446875,188.843017578125,134.68727446875,188.843017578125,134.93727446875,185.718017578125C135.18477446875,184.769317578125,135.43227546875,183.820517578125,135.68727446875,182.843017578125C138.08787046875,181.642717578125,139.58088046875,181.728417578125,142.25759046875,181.745317578125C143.15349046875,181.748617578125,144.04938046875,181.75181757812499,144.97243046875,181.755117578125C145.90953046875,181.763517578125,146.84673046875,181.771917578125,147.81223046875,181.780517578125C148.75713046875,181.785017578125,149.70203046875,181.78951757812501,150.67553046875,181.794217578125C153.01283046875,181.806017578125,155.35003046875,181.822417578125,157.68723046875,181.843017578125C157.33943046875,179.867617578125,157.33943046875,179.867617578125,156.68723046875,177.843017578125C156.02723046875,177.51301757812502,155.36723046875,177.183017578125,154.68723046875,176.843017578125C155.01723046875,175.523017578125,155.34723046875,174.203017578125,155.68723046875,172.843017578125C154.36723046875,173.17301757812498,153.04723046875,173.503017578125,151.68723046875,173.843017578125C151.68723046875,173.183017578125,151.68723046875,172.523017578125,151.68723046875,171.843017578125C152.64633046875,171.409917578125,152.64633046875,171.409917578125,153.62473046875,170.968017578125C155.83933046875,170.014817578125,155.83933046875,170.014817578125,156.68723046875,167.843017578125C156.92003046874999,164.963917578125,157.10703046875,162.101517578125,157.24973046875,159.218017578125C157.29293046875,158.41621757812499,157.33613046875,157.614427578125,157.38063046874998,156.788327578125C157.48683046875,154.806767578125,157.58753046875,152.824917578125,157.68723046875,150.843017578125Z" fill="#D9E7E0" fill-opacity="1" style="mix-blend-mode:passthrough"/></g><g><path d="M75.68745661621094,79.843017578125C76.34745661621093,80.503017578125,77.00745661621093,81.163017578125,77.68745661621094,81.843017578125C77.31245661621094,84.468017578125,77.31245661621094,84.468017578125,76.68745661621094,86.843017578125C79.62465661621093,88.366007578125,82.60435661621094,89.644017578125,85.68745661621094,90.843017578125C86.01745661621094,89.853017578125,86.34745661621093,88.863017578125,86.68745661621094,87.843017578125C88.24995661621094,86.155517578125,88.24995661621094,86.155517578125,89.68745661621094,84.843017578125C89.02745661621094,84.513017578125,88.36745661621094,84.183017578125,87.68745661621094,83.843017578125C89.62495661621094,83.280517578125,89.62495661621094,83.280517578125,91.68745661621094,82.843017578125C92.68745661621094,83.843017578125,92.68745661621094,83.843017578125,92.74995661621094,86.905517578125C92.72935661621094,87.874887578125,92.70875661621093,88.844267578125,92.68745661621094,89.843017578125C90.70745661621095,90.173017578125,88.72745661621093,90.503017578125,86.68745661621094,90.843017578125C86.37815661621093,91.791717578125,86.06875661621095,92.74051757812501,85.74995661621094,93.718017578125C84.68745661621094,96.843017578125,84.68745661621094,96.843017578125,83.68745661621094,98.843017578125C81.68745661621094,97.843017578125,81.68745661621094,97.843017578125,78.68745661621094,95.843017578125C79.18245661621094,98.318017578125,79.18245661621094,98.318017578125,79.68745661621094,100.843017578125C78.03745661621093,101.173017578125,76.38745661621094,101.503017578125,74.68745661621094,101.843017578125C75.18245661621094,103.823017578125,75.18245661621094,103.823017578125,75.68745661621094,105.843017578125C76.34745661621093,104.853017578125,77.00745661621093,103.863017578125,77.68745661621094,102.843017578125C78.67745661621095,103.833017578125,79.66745661621093,104.823017578125,80.68745661621094,105.843017578125C79.90435661621095,106.773117578125,79.90435661621095,106.773117578125,79.10545661621094,107.721917578125C64.36985661621094,125.45111757812501,50.217646616210935,142.547317578125,51.44775661621094,166.692617578125C52.02230661621094,171.84611757812502,54.21275661621094,176.35351757812498,56.68745661621094,180.843017578125C57.176056616210936,181.766017578125,57.664656616210934,182.689017578125,58.16795661621094,183.640017578125C58.66945661621094,184.367017578125,59.17085661621094,185.094017578125,59.68745661621094,185.843017578125C60.67745661621093,186.00801757812502,61.66745661621094,186.17301757812498,62.68745661621094,186.343017578125C63.67745661621093,186.50801757812502,64.66745661621094,186.67301757812498,65.68745661621094,186.843017578125C67.31245661621094,189.155017578125,67.31245661621094,189.155017578125,68.68745661621094,191.843017578125C69.99725661621093,193.200017578125,71.33555661621094,194.529017578125,72.68745661621094,195.843017578125C73.72425661621094,197.047017578125,74.75475661621094,198.256017578125,75.78125661621094,199.468017578125C80.38605661621094,204.75801757812502,85.53805661621094,209.396017578125,90.72265661621094,214.107017578125C96.67935661621094,219.603017578125,99.65515661621095,223.870017578125,101.68745661621094,231.843017578125C83.62225661621093,225.317017578125,67.23435661621093,204.582017578125,55.935056616210936,189.492017578125C54.770256616210936,187.95201757812498,53.56805661621094,186.441017578125,52.36325661621094,184.933017578125C46.42678661621094,177.306517578125,41.63131361621094,168.328617578125,42.33178711621094,158.35011757812498C43.938836616210935,147.023517578125,49.32649661621094,136.533917578125,54.12495661621094,126.280517578125C54.832756616210936,124.752417578125,55.53975661621094,123.224017578125,56.246056616210936,121.695317578125C58.03555661621094,117.82701757812501,59.834456616210936,113.963217578125,61.63595661621093,110.100417578125C63.30625661621094,106.514817578125,64.96745661621094,102.924917578125,66.62885661621094,99.335217578125C69.63955661621094,92.833617578125,72.65985661621093,86.336647578125,75.68745661621094,79.843017578125Z" fill="#4B7859" fill-opacity="1" style="mix-blend-mode:passthrough"/></g><g><path d="M184.6875,95.84300930175782C186.05599999999998,97.14030930175781,187.4053,98.46050930175781,188.6875,99.84300930175782C186.6283,100.47900930175781,184.5649,101.10100930175781,182.5,101.71800930175782C181.3514,102.06610930175782,180.2029,102.4141093017578,179.0195,102.77270930175781C168.7801,105.49310930175781,158.4922,106.20470930175782,147.9375,106.15550930175782C146.1087,106.15030930175782,146.1087,106.15030930175782,144.2429,106.14500930175781C131.5367,105.99260930175781,119.62819999999999,104.40220930175781,107.6875,99.84300930175782C111.23503,96.00870930175782,114.84332,93.29780930175781,119.4375,90.7805193017578C120.0573,90.43617930175782,120.6771,90.09183930175782,121.31569999999999,89.73706930175781C144.5454,76.97173930175781,163.5735,80.45482930175781,184.6875,95.84300930175782Z" fill="#85AD92" fill-opacity="1" style="mix-blend-mode:passthrough"/></g><g><path d="M179.6875,22.842946484375C195.4925,34.470146484375,207.2745,50.188646484375,213.6875,68.842946484375C213.6875,69.502946484375,213.6875,70.162946484375,213.6875,70.842946484375C210.6885,70.517246484375,209.69150000000002,69.847146484375,207.5395,67.655446484375C206.80450000000002,66.727246484375,206.0695,65.799146484375,205.3125,64.842946484375C204.5285,63.854146484375,203.7455,62.865446484375,202.9375,61.846846484375C200.45350000000002,58.530246484375,198.15550000000002,55.143646484375,195.9765,51.620246484375C194.6395,49.559446484375,194.6395,49.559446484375,191.6875,47.842946484375C191.17149999999998,46.832246484375,190.6565,45.821646484375,190.1255,44.780446484375C184.34050000000002,34.280646484375,171.89159999999998,26.833346484375,160.875,22.905446484375C147.1563,19.348706484375,134.4479,22.194986484375,122.4297,29.038246484375C115.3963,33.666946484375,106.4399,40.585846484375,103.6875,48.842946484375C103.0687,49.296646484375,102.45,49.750446484375,101.8125,50.217946484375C99.5694,51.725946484375,99.5694,51.725946484375,98.3398,54.092946484375C96.5083,57.141146484375,94.4051,59.740746484375,92.125,62.467946484375C89.83401,65.21404648437499,87.67204,67.866046484375,85.6875,70.842946484375C85.0275,70.842946484375,84.3675,70.842946484375,83.6875,70.842946484375C86.38157,53.481146484375,98.3704,36.117746484375004,112.271,25.650546484375C119.59989999999999,20.412866484375,126.96770000000001,16.325816484375,135.6875,13.842896484375C136.2946,13.653406484375001,136.9018,13.463916484375,137.5273,13.268679484375C152.40030000000002,10.337106484375,167.2674,14.545656484375,179.6875,22.842946484375Z" fill="#D9E9E2" fill-opacity="1" style="mix-blend-mode:passthrough"/></g><g><path d="M183.6875,210.843017578125C185.5496,215.700727578125,183.1889,219.320107578125,181.19920000000002,223.811817578125C176.553,233.128317578125,169.13400000000001,241.34941757812499,159.375,245.343017578125C150.8331,248.015317578125,142.3396,248.043317578125,134.1328,244.296117578125C123.2714,237.84171757812499,114.90247,227.126417578125,111.6875,214.843017578125C112.017502,213.853017578125,112.347504,212.863017578125,112.6875,211.843017578125C113.19797,212.350907578125,113.70844,212.858797578125,114.23438,213.382077578125C124.66290000000001,223.255917578125,135.4834,227.409217578125,149.6875,227.843017578125C163.0824,227.240217578125,172.9147,221.786617578125,182.6875,212.843017578125C183.01749999999998,212.183017578125,183.3475,211.523017578125,183.6875,210.843017578125Z" fill="#7B9F86" fill-opacity="1" style="mix-blend-mode:passthrough"/></g><g><path d="M178.6875,101.8430515625C169.8105,106.90635156249999,157.7913,106.1995515625,147.875,106.1555515625C146.6597,106.15425156250001,145.4445,106.1529515625,144.1924,106.1516515625C135.0545,106.0542515625,126.5348,105.1510515625,117.6875,102.8430515625C122.7516,97.3569115625,127.7432,95.2731215625,134.6875,92.8430215625C135.702,92.47306156249999,136.7165,92.1031015625,137.7617,91.7219315625C152.7551,87.1881815625,166.2612,93.7295115625,178.6875,101.8430515625Z" fill="#D9E9E1" fill-opacity="1" style="mix-blend-mode:passthrough"/></g><g><path d="M124.6875,229.843017578125C127.58198,230.983267578125,130.41794,232.176197578125,133.25,233.468017578125C136.6894,235.090607578125,136.6894,235.090607578125,140.6875,234.843017578125C140.6875,235.503017578125,140.6875,236.163017578125,140.6875,236.843017578125C149.4903,236.622117578125,157.2578,236.258777578125,165.4531,232.682857578125C167.6875,231.843017578125,167.6875,231.843017578125,171.6875,231.843017578125C172.3475,232.833017578125,173.0075,233.823017578125,173.6875,234.843017578125C166.0222,242.640817578125,158.7071,246.888417578125,147.625,247.343017578125C136.2666,246.859417578125,129.55646,241.678517578125,121.6875,233.843017578125C122.6775,232.523017578125,123.6675,231.203017578125,124.6875,229.843017578125Z" fill="#DAE9E2" fill-opacity="1" style="mix-blend-mode:passthrough"/></g><g><path d="M96.6875,151.843017578125C101.21585,153.470457578125,104.75869,155.162137578125,107.145,159.480717578125C108.3299,162.781217578125,109.3192,166.087117578125,110.25,169.468017578125C110.9834,171.89571757812502,111.723,174.321417578125,112.4687,176.745317578125C112.8323,177.94271757812498,113.19579999999999,179.140117578125,113.5703,180.373817578125C115.1839,185.38451757812498,117.15350000000001,190.205317578125,119.25,195.030517578125C119.5968,195.831217578125,119.9437,196.631817578125,120.301,197.456817578125C121.0878,199.256017578125,121.8861,201.050217578125,122.6875,202.843017578125C122.0275,202.843017578125,121.3675,202.843017578125,120.6875,202.843017578125C107.6521,188.618617578125,99.02049,171.077717578125,96.6875,151.843017578125Z" fill="#4F795B" fill-opacity="1" style="mix-blend-mode:passthrough"/></g><g><path d="M229.6875,172.84301122070312C229.35750000000002,174.4930162207031,229.0275,176.14301622070312,228.6875,177.84301622070313C228.0275,177.84301622070313,227.3675,177.84301622070313,226.6875,177.84301622070313C227.3475,180.48301622070312,228.0075,183.12302622070314,228.6875,185.84302622070314C231.6575,186.3380262207031,231.6575,186.3380262207031,234.6875,186.84302622070314C234.6875,187.50302622070313,234.6875,188.16302622070313,234.6875,188.8430262207031C233.5428,189.05952622070313,233.5428,189.05952622070313,232.375,189.2805262207031C229.6058,189.80622622070314,229.6058,189.80622622070314,226.6875,190.8430262207031C226.3334,192.17092622070314,226.0023,193.50522622070312,225.6875,194.8430262207031C224.25,196.5930262207031,224.25,196.5930262207031,222.6875,197.8430262207031C222.0275,197.8430262207031,221.3675,197.8430262207031,220.6875,197.8430262207031C220.4606,198.39992622070312,220.2337,198.95672622070313,220,199.5305262207031C218.3172,202.4954262207031,216.1264,204.45952622070314,213.6875,206.8430262207031C212.8045,207.72602622070312,211.9215,208.60902622070313,211.01172,209.51882622070312C208.57031,211.96022622070313,206.12891,214.40162622070312,203.6875,216.8430262207031C203.0275,215.52302622070312,202.3675,214.20302622070312,201.6875,212.8430262207031C202.3475,212.8430262207031,203.0075,212.8430262207031,203.6875,212.8430262207031C204.3475,210.53302622070314,205.0075,208.22302622070313,205.6875,205.8430262207031C206.3475,205.8430262207031,207.0075,205.8430262207031,207.6875,205.8430262207031C208.3475,203.86302622070312,209.0075,201.88302622070313,209.6875,199.8430262207031C211.9975,199.8430262207031,214.3075,199.8430262207031,216.6875,199.8430262207031C215.6975,198.85302622070313,214.7075,197.86302622070312,213.6875,196.8430262207031C215.0075,196.51302622070313,216.3275,196.1830262207031,217.6875,195.8430262207031C217.6875,195.1830262207031,217.6875,194.52302622070312,217.6875,193.8430262207031C216.6975,194.17302622070312,215.7075,194.50302622070313,214.6875,194.8430262207031C215.6875,191.8430262207031,215.6875,191.8430262207031,217.6875,189.8430262207031C217.0275,189.51302622070313,216.3675,189.1830262207031,215.6875,188.8430262207031C217.7398,186.59522622070313,218.6942,185.84082622070312,221.6875,184.84302622070314C220.6975,184.51302622070313,219.7075,184.1830262207031,218.6875,183.84302622070314C219.6775,183.51302622070313,220.6675,183.1830262207031,221.6875,182.84302622070314C221.6875,181.85301622070313,221.6875,180.86301622070312,221.6875,179.84301622070313C222.3475,179.84301622070313,223.0075,179.84301622070313,223.6875,179.84301622070313C224.01749999999998,178.52300622070314,224.3475,177.20301622070312,224.6875,175.84301622070313C223.3675,175.84301622070313,222.0475,175.84301622070313,220.6875,175.84301622070313C222.6722,171.87365222070312,225.7308,171.4298962207031,229.6875,172.84301122070312Z" fill="#1B2B1E" fill-opacity="1" style="mix-blend-mode:passthrough"/></g><g><path d="M198.6873671875,151.843017578125C200.3233671875,155.115077578125,198.6361671875,158.253177578125,197.6248671875,161.593017578125C197.2803671875,162.735017578125,197.2803671875,162.735017578125,196.9288671875,163.900117578125C193.2438671875,175.786617578125,188.5680671875,186.085217578125,180.6873771875,195.843017578125C180.1524071875,196.506917578125,179.6174471875,197.170717578125,179.0662771875,197.854717578125C177.9591771875,199.200217578125,176.8271571875,200.525117578125,175.6873721875,201.843017578125C174.6873721875,199.843017578125,174.6873721875,199.843017578125,175.4283391875,197.527317578125C175.8270621875,196.573217578125,176.2257871875,195.619017578125,176.6365871875,194.636017578125C177.0710871875,193.579917578125,177.5055771875,192.523817578125,177.9532371875,191.435817578125C178.4223771875,190.312017578125,178.8915171875,189.188317578125,179.3748771875,188.030517578125C185.4938671875,174.000317578125,185.4938671875,174.000317578125,188.9920671875,159.190677578125C189.6873671875,156.843017578125,189.6873671875,156.843017578125,191.7537671875,155.260987578125C192.5774671875,154.854927578125,193.4011671875,154.448877578125,194.2498671875,154.030517578125C195.0761671875,153.611567578125,195.9024671875,153.192627578125,196.7537671875,152.760986578125C197.3918671875,152.458056578125,198.0299671875,152.155126578125,198.6873671875,151.843017578125Z" fill="#4E785E" fill-opacity="1" style="mix-blend-mode:passthrough"/></g><g><path d="M77.6875,180.843017578125C78.3475,181.503017578125,79.0075,182.163017578125,79.6875,182.843017578125C79.0275,184.493017578125,78.3675,186.143017578125,77.6875,187.843017578125C78.8322,187.873957578125,78.8322,187.873957578125,80,187.905517578125C82.6875,188.843017578125,82.6875,188.843017578125,84.25,192.030517578125C84.473,192.659617578125,84.696,193.288617578125,84.9258,193.936817578125C85.7315,196.167317578125,85.7315,196.167317578125,87.9375,199.030517578125C89.6875,201.843017578125,89.6875,201.843017578125,89.5625,203.905517578125C89.2738,204.544917578125,88.985,205.18421757812501,88.6875,205.843017578125C88.3369,206.750517578125,87.9862,207.658017578125,87.625,208.593017578125C87.3156,209.335517578125,87.0063,210.078017578125,86.6875,210.843017578125C73.17312,199.535017578125,73.17312,199.535017578125,70.6875,192.843017578125C70.00688,192.513017578125,69.32625,192.183017578125,68.625,191.843017578125C66.6875,190.843017578125,66.6875,190.843017578125,65.6875,188.468017578125C65.6875,185.843017578125,65.6875,185.843017578125,67.625,183.530517578125C68.30562,182.973647578125,68.98625,182.416767578125,69.6875,181.843017578125C70.3475,182.503017578125,71.0075,183.163017578125,71.6875,183.843017578125C72.6775,183.513017578125,73.6675,183.183017578125,74.6875,182.843017578125C74.6875,183.503017578125,74.6875,184.163017578125,74.6875,184.843017578125C75.3475,184.843017578125,76.0075,184.843017578125,76.6875,184.843017578125C77.0175,183.523017578125,77.3475,182.203017578125,77.6875,180.843017578125Z" fill="#1A2B1F" fill-opacity="1" style="mix-blend-mode:passthrough"/></g><g><path d="M147.62473046875,181.65550659179686C148.54453046875,181.64326039179687,149.46423046875,181.63101429179687,150.41193046875,181.61839709179688C151.29553046875,181.61646349179688,152.17923046875,181.61452989179688,153.08963046875,181.6125376917969C153.89903046875,181.60842889179688,154.70853046874998,181.60431999179687,155.54253046875,181.60008659179687C157.68723046875,181.84300659179686,157.68723046875,181.84300659179686,160.68723046875,183.84300659179686C160.99973046875,186.84300659179686,160.99973046875,186.84300659179686,160.68723046875,189.84300659179686C157.69353046875,192.83670659179688,154.88233046875,192.1356065917969,150.78883046875,192.16530659179688C149.76533046875,192.16200659179688,148.74183046875,192.15880659179686,147.68723046875,192.15550659179686C146.15203046875,192.17970659179687,146.15203046875,192.17970659179687,144.58571046875,192.20430659179686C143.12005046875,192.20530659179687,143.12005046875,192.20530659179687,141.62478046875,192.20630659179687C140.72630046875,192.20930659179686,139.82782046875,192.21220659179687,138.90212046875,192.2153065917969C137.80577046875,192.03100659179688,137.80577046875,192.03100659179688,136.68728046875,191.84300659179686C134.68727546875,188.84300659179686,134.68727546875,188.84300659179686,134.93727546875,185.71800659179686C135.30852646875,184.29487659179688,135.30852646875,184.29487659179688,135.68727546875,182.84300659179686C139.32626046875,181.02351659179686,143.61887046875,181.65830159179689,147.62473046875,181.65550659179686Z" fill="#020303" fill-opacity="1" style="mix-blend-mode:passthrough"/></g><g><path d="M206.6875,238.843017578125C206.7906,239.399892578125,206.8937,239.956767578125,207,240.530517578125C207.85,243.389537578125,208.9147,245.437067578125,210.6875,247.843017578125C213.2585,249.189917578125,213.2585,249.189917578125,215.6875,249.843017578125C215.0275,250.503017578125,214.3675,251.163017578125,213.6875,251.843017578125C210.1518,251.307317578125,210.1518,251.307317578125,208.6875,249.843017578125C207.90370000000001,250.647417578125,207.12,251.451817578125,206.3125,252.280517578125C203.6875,254.843017578125,203.6875,254.843017578125,201.6875,255.843017578125C202.5,253.905517578125,202.5,253.905517578125,203.6875,251.843017578125C204.6775,251.513017578125,205.6675,251.183017578125,206.6875,250.843017578125C206.35750000000002,249.523017578125,206.0275,248.203017578125,205.6875,246.843017578125C205.4851,247.408917578125,205.2827,247.974817578125,205.0742,248.557857578125C203.1674,251.700117578125,200.4963,253.402417578125,197.5,255.405517578125C196.9476,255.791617578125,196.3953,256.177617578125,195.8262,256.575417578125C191.94412,259.222117578125,188.05239,261.107017578125,183.6875,262.843017578125C184.05146,258.496917578125,184.78272,254.785817578125,186.6875,250.843017578125C189.78031,248.466837578125,192.8073,246.928957578125,196.3633,245.343017578125C200.0709,243.670007578125,203.7801,241.750457578125,206.6875,238.843017578125Z" fill="#203B26" fill-opacity="1" style="mix-blend-mode:passthrough"/></g><g><path d="M186.68749974609375,43.84301895703125C189.42578974609376,45.43676595703125,189.42578974609376,45.43676595703125,191.99998974609375,47.34301595703125C192.86238974609375,47.97208595703125,193.72478974609376,48.60114595703125,194.61328974609376,49.24926595703125C196.68748974609375,50.84301595703125,196.68748974609375,50.84301595703125,197.68748974609375,51.84301595703125C196.96748974609375,58.56305595703125,196.96748974609375,58.56305595703125,195.68748974609375,59.843055957031254C189.21738974609374,60.968255957031246,185.35636974609375,58.24625595703125,179.94531974609376,54.86255595703125C177.68750274609374,52.84301595703125,177.68750274609374,52.84301595703125,176.81640914609375,50.245365957031254C176.66627274609374,47.44737595703125,177.12451274609376,46.14637595703125,178.68749974609375,43.84301895703125C181.65014974609375,42.36169395703125,183.50966974609375,43.06888155703125,186.68749974609375,43.84301895703125Z" fill="#040704" fill-opacity="1" style="mix-blend-mode:passthrough"/></g><g><path d="M114.875,43.218023623046875C115.8031,43.42427362304687,116.7313,43.63052362304688,117.6875,43.843023623046875C118.9375,46.53051862304687,118.9375,46.53051862304687,119.6875,49.84301862304687C117.0525,54.98763862304688,111.87010000000001,57.669338623046876,106.6875,59.84303862304688C103.25,60.28053862304688,103.25,60.28053862304688,100.6875,59.84303862304688C98.6875,57.84303862304687,98.6875,57.84303862304687,98.375,54.90553862304687C98.6875,51.84301862304687,98.6875,51.84301862304687,99.75,50.21801862304687C102.06925,48.57209862304688,104.47366,47.170318623046875,106.96875,45.80786862304687C112.1527,42.897758623046876,112.1527,42.897758623046876,114.875,43.218023623046875Z" fill="#030603" fill-opacity="1" style="mix-blend-mode:passthrough"/></g><g><path d="M98.56249203125,270.343017578125C101.68749203125,270.843017578125,101.68749203125,270.843017578125,103.93748203125,273.468017578125C106.82028203125,279.027637578125,108.29648203125,283.509317578125,107.68748203125,289.843017578125C104.46608203125,291.990617578125,103.42798203125,292.404117578125,99.68749203125,291.843017578125C97.27911203125,289.118017578125,95.81926203125,286.251617578125,94.43749203125,282.905517578125C93.90382203125,281.654517578125,93.90382203125,281.654517578125,93.35937003125,280.378217578125C92.57876403125,277.432747578125,92.76910303125,275.730087578125,93.68749503125,272.843017578125C95.68749203125,270.843017578125,95.68749203125,270.843017578125,98.56249203125,270.343017578125Z" fill="#020502" fill-opacity="1" style="mix-blend-mode:passthrough"/></g><g><path d="M197.5625,270.468017578125C200.6875,270.843017578125,200.6875,270.843017578125,202.5156,272.952397578125C204.1204,276.910787578125,203.1951,278.587257578125,201.5625,282.468017578125C201.1062,283.594617578125,200.6498,284.721317578125,200.1797,285.882117578125C198.8712,288.478517578125,197.9716,290.096717578125,195.6875,291.843017578125C193.1875,292.280517578125,193.1875,292.280517578125,190.6875,291.843017578125C188.8125,290.218017578125,188.8125,290.218017578125,187.6875,287.843017578125C187.6875,282.065117578125,191.19635,271.298384578125,197.5625,270.468017578125Z" fill="#020603" fill-opacity="1" style="mix-blend-mode:passthrough"/></g><g><path d="M44.6875,222.843017578125C45.0175,226.473017578125,45.3475,230.103017578125,45.6875,233.843017578125C43.6875,232.843017578125,43.6875,232.843017578125,41.6875,230.843017578125C41.3575,231.503017578125,41.0275,232.163017578125,40.6875,232.843017578125C39.5119,233.059617578125,39.5119,233.059617578125,38.3125,233.280517578125C35.3882,233.907117578125,34.644999999999996,234.699117578125,32.6875,236.843017578125C32.0275,236.843017578125,31.3675,236.843017578125,30.6875,236.843017578125C29.697499999999998,238.328017578125,29.697499999999998,238.328017578125,28.6875,239.843017578125C28.3575,239.183017578125,28.0275,238.523017578125,27.6875,237.843017578125C26.945,238.358617578125,26.2025,238.874217578125,25.4375,239.405517578125C22.6875,240.843017578125,22.6875,240.843017578125,20.5,240.843017578125C17.91987,239.419517578125,17.667492,237.53691757812499,16.6875,234.843017578125C17.579531,234.433117578125,18.47156,234.023217578125,19.39062,233.600817578125C20.56109,233.062017578125,21.73156,232.523177578125,22.9375,231.968017578125C24.09766,231.434347578125,25.25781,230.900677578125,26.45312,230.350827578125C28.8868,229.216297578125,31.2887,228.047427578125,33.6875,226.843017578125C35.2244,226.124397578125,36.7662,225.416177578125,38.3125,224.718017578125C39.088499999999996,224.364817578125,39.8645,224.011607578125,40.664100000000005,223.647705578125C42.6875,222.843017578125,42.6875,222.843017578125,44.6875,222.843017578125Z" fill="#26432E" fill-opacity="1" style="mix-blend-mode:passthrough"/></g><g><path d="M251.6875,221.843017578125C253.35812,222.686064578125,253.35812,222.686064578125,255.0625,223.546137578125C259.90391,225.966847578125,264.7919,228.284337578125,269.6875,230.593017578125C270.5576,231.004227578125,271.4277,231.415437578125,272.3242,231.839107578125C274.4449,232.841217578125,276.566,233.842517578125,278.6875,234.843017578125C278.6875,235.833017578125,278.6875,236.823017578125,278.6875,237.843017578125C277.0843,238.038517578125,275.4799,238.224117578125,273.875,238.405517578125C272.9817,238.509917578125,272.0884,238.614317578125,271.168,238.721917578125C268.6875,238.843017578125,268.6875,238.843017578125,265.6875,237.843017578125C264.6975,238.17301757812498,263.7075,238.503017578125,262.6875,238.843017578125C262.5019,238.224317578125,262.3162,237.605517578125,262.125,236.968017578125C259.9888,233.810117578125,257.28046,233.788517578125,253.6875,232.843017578125C251.6875,231.718017578125,251.6875,231.718017578125,250.6875,229.843017578125C250.7586045,227.080877578125,251.193967,224.579877578125,251.6875,221.843017578125Z" fill="#233F2C" fill-opacity="1" style="mix-blend-mode:passthrough"/></g><g><path d="M88.6875,240.843017578125C92.54448,241.398856578125,94.96806,242.455827578125,98.125,244.718017578125C100.8144,246.621167578125,102.8896,247.919297578125,106,249.093017578125C110.1784,251.813817578125,111.5073,256.097817578125,112.6875,260.843017578125C112.3575,261.503017578125,112.0275,262.163017578125,111.6875,262.843017578125C110.8006,262.224317578125,109.9137,261.605517578125,109,260.968017578125C106.2269,259.189017578125,103.7735,257.932217578125,100.6875,256.843017578125C100.6875,256.183017578125,100.6875,255.523017578125,100.6875,254.843017578125C99.3675,254.513017578125,98.0475,254.183017578125,96.6875,253.843017578125C96.6875,253.183017578125,96.6875,252.523017578125,96.6875,251.843017578125C95.82125,251.71931757812501,95.82125,251.71931757812501,94.9375,251.593017578125C91.91843,250.586657578125,90.6056,249.377647578125,88.6875,246.843017578125C88.4375,243.593017578125,88.4375,243.593017578125,88.6875,240.843017578125Z" fill="#203927" fill-opacity="1" style="mix-blend-mode:passthrough"/></g><g><path d="M56.6875,219.843017578125C59.04703,222.202547578125,59.17891,223.621977578125,59.6875,226.843017578125C60.0175,226.183017578125,60.3475,225.523017578125,60.6875,224.843017578125C61.6775,225.503017578125,62.667500000000004,226.163017578125,63.6875,226.843017578125C64.6775,226.843017578125,65.6675,226.843017578125,66.6875,226.843017578125C71.336,231.491517578125,73.93860000000001,236.924217578125,76.6875,242.843017578125C73.7257,242.230217578125,72.3069,241.589317578125,69.6875,239.843017578125C67.7075,240.833017578125,67.7075,240.833017578125,65.6875,241.843017578125C65.6875,241.183017578125,65.6875,240.523017578125,65.6875,239.843017578125C63.707499999999996,240.833017578125,63.707499999999996,240.833017578125,61.6875,241.843017578125C61.6875,241.183017578125,61.6875,240.523017578125,61.6875,239.843017578125C61.0275,239.51301757812502,60.3675,239.183017578125,59.6875,238.843017578125C57.207057,235.122317578125,57.243688,231.977617578125,57.0625,227.655517578125C57.023828,226.905927578125,56.985156,226.156337578125,56.945312,225.384037578125C56.851218,223.537427578125,56.7682768,221.690257578125,56.6875,219.843017578125Z" fill="#34573D" fill-opacity="1" style="mix-blend-mode:passthrough"/></g><g><path d="M188.6875,122.84301524375C188.3192,129.22754734375,188.3192,129.22754734375,185.25,132.21801734375C181.5799,134.54537734375,179.6495,135.00147734375,175.3125,135.03047734375C173.87777,135.05177734375,173.87777,135.05177734375,172.41406,135.07347734375C169.6574,134.84047734375,168.03803,134.25217734375,165.6875,132.84297734375C167.1747,128.92221734375,168.91611,127.61325734375,172.6875,125.84301734375C178.0438,124.08711734375,183.0134,122.62715134375,188.6875,122.84301524375Z" fill="#D8E6E2" fill-opacity="1" style="mix-blend-mode:passthrough"/></g><g><path d="M107.6875,122.843017578125C112.01427,123.219258578125,116.1582,124.122487578125,120.375,125.155517578125C121.2864,125.378527578125,122.1977,125.601537578125,123.1367,125.831297578125C126.0759,126.997057578125,127.6151,128.489147578125,129.6875,130.843017578125C129.35750000000002,131.833017578125,129.0275,132.823017578125,128.6875,133.843017578125C124.0222,135.398117578125,119.5494,135.560817578125,114.6875,134.843017578125C110.65848,132.751297578125,108.20973,130.311797578125,106.6875,126.030517578125C106.6875,123.843017578125,106.6875,123.843017578125,107.6875,122.843017578125Z" fill="#DBE6E2" fill-opacity="1" style="mix-blend-mode:passthrough"/></g><g><path d="M231.6875,224.843017578125C232.3475,225.173017578125,233.0075,225.503017578125,233.6875,225.843017578125C232.6975,227.328017578125,232.6975,227.328017578125,231.6875,228.843017578125C232.3475,228.183017578125,233.0075,227.523017578125,233.6875,226.843017578125C236.3125,226.718017578125,236.3125,226.718017578125,238.6875,226.843017578125C238.7302,228.509137578125,238.7281,230.176847578125,238.6875,231.843017578125C238.35750000000002,232.173017578125,238.0275,232.503017578125,237.6875,232.843017578125C237.6469,234.509187578125,237.6448,236.176917578125,237.6875,237.843017578125C235.0475,238.173017578125,232.4075,238.503017578125,229.6875,238.843017578125C229.58438,239.482417578125,229.48125,240.121817578125,229.375,240.780517578125C229.14812,241.461117578125,228.92125,242.141717578125,228.6875,242.843017578125C227.6975,243.17301757812498,226.7075,243.503017578125,225.6875,243.843017578125C223,242.405517578125,223,242.405517578125,220.6875,240.843017578125C221.99361,237.312117578125,223.53635,234.285837578125,225.625,231.155517578125C226.12902,230.388527578125,226.63305,229.62153757812501,227.15234,228.831297578125C228.6875,226.843017578125,228.6875,226.843017578125,231.6875,224.843017578125Z" fill="#33533C" fill-opacity="1" style="mix-blend-mode:passthrough"/></g><g><path d="M176.6875,221.843017578125C178.0075,222.173017578125,179.3275,222.503017578125,180.6875,222.843017578125C179.4294,227.351047578125,177.7834,230.334297578125,174.6875,233.843017578125C173.8625,233.430517578125,173.0375,233.018017578125,172.1875,232.593017578125C167.8397,231.661357578125,166.31810000000002,232.622617578125,162.6172,234.800017578125C158.38809,237.085817578125,154.43453,236.934317578125,149.6875,236.843017578125C150.3475,236.513017578125,151.0075,236.183017578125,151.6875,235.843017578125C152.821,233.82631757812499,152.821,233.82631757812499,153.6875,231.843017578125C154.0175,232.503017578125,154.3475,233.163017578125,154.6875,233.843017578125C157.03062,233.587417578125,159.36593,233.250317578125,161.6875,232.843017578125C162.0175,232.183017578125,162.3475,231.523017578125,162.6875,230.843017578125C164.0075,230.843017578125,165.3275,230.843017578125,166.6875,230.843017578125C167.01749999999998,229.523017578125,167.3475,228.203017578125,167.6875,226.843017578125C168.6569,226.719267578125,169.6262,226.595517578125,170.625,226.468017578125C171.6356,226.261767578125,172.6462,226.055517578125,173.6875,225.843017578125C174.01749999999998,225.183017578125,174.3475,224.523017578125,174.6875,223.843017578125C175.3475,223.843017578125,176.0075,223.843017578125,176.6875,223.843017578125C176.6875,223.183017578125,176.6875,222.523017578125,176.6875,221.843017578125Z" fill="#8BB19A" fill-opacity="1" style="mix-blend-mode:passthrough"/></g><g><path d="M163.6875,83.84300567382813C162.6975,84.50300567382813,161.7075,85.16300567382812,160.6875,85.84300567382813C157,84.96800567382813,157,84.96800567382813,153.6875,83.84300567382813C153.35750000000002,84.83300567382813,153.0275,85.82300567382812,152.6875,86.84300567382813C151.3675,85.52300567382812,150.0475,84.20300567382813,148.6875,82.84300567382813C148.6875,83.83300567382813,148.6875,84.82300567382812,148.6875,85.84300567382813C146.3775,85.51300567382812,144.0675,85.18300567382812,141.6875,84.84300567382813C141.3575,86.49300567382812,141.0275,88.14300567382813,140.6875,89.84300567382813C139.3675,89.18300567382812,138.0475,88.52300567382812,136.6875,87.84300567382813C137.0175,87.51300567382812,137.3475,87.18300567382812,137.6875,86.84300567382813C135.2195,87.99474567382812,133.63966,88.89084567382812,131.6875,90.84300567382813C131.0275,89.85300567382812,130.3675,88.86300567382813,129.6875,87.84300567382813C128.6975,87.51300567382812,127.7075,87.18300567382812,126.6875,86.84300567382813C138.4755,80.84714267382813,151.1108,78.74433567382812,163.6875,83.84300567382813Z" fill="#62836B" fill-opacity="1" style="mix-blend-mode:passthrough"/></g><g><path d="M183.6875,210.843017578125C185.013,214.882967578125,184.2594,217.293047578125,182.7148,221.143817578125C181.6875,222.843017578125,181.6875,222.843017578125,179.125,223.718017578125C178.3206,223.759317578125,177.5163,223.800517578125,176.6875,223.843017578125C176.0275,224.503017578125,175.3675,225.163017578125,174.6875,225.843017578125C173.35954,226.197117578125,172.02533,226.528217578125,170.6875,226.843017578125C169.98625,227.214317578125,169.285,227.585517578125,168.5625,227.968017578125C167.94375,228.256717578125,167.325,228.545517578125,166.6875,228.843017578125C166.0275,228.51301757812502,165.3675,228.183017578125,164.6875,227.843017578125C165.97489,223.980817578125,167.42686,223.524817578125,170.875,221.468017578125C178.3208,217.232947578125,178.3208,217.232947578125,183.6875,210.843017578125Z" fill="#5A7765" fill-opacity="1" style="mix-blend-mode:passthrough"/></g><g><path d="M124.6875,87.843017578125C125.3475,88.173017578125,126.0075,88.503017578125,126.6875,88.843017578125C126.3575,89.833017578125,126.0275,90.823017578125,125.6875,91.843017578125C124.6975,92.338017578125,124.6975,92.338017578125,123.6875,92.843017578125C123.6875,93.503017578125,123.6875,94.163017578125,123.6875,94.843017578125C122.3675,95.173017578125,121.0475,95.503017578125,119.6875,95.843017578125C119.6462,96.461767578125,119.605,97.080517578125,119.5625,97.718017578125C118.6875,99.843017578125,118.6875,99.843017578125,115.9375,101.218017578125C112.33786,101.910217578125,110.87385,101.529917578125,107.6875,99.843017578125C112.27298,94.438707578125,118.3225,90.870387578125,124.6875,87.843017578125Z" fill="#65866E" fill-opacity="1" style="mix-blend-mode:passthrough"/></g><g><path d="M169.6875,86.843017578125C176.68468000000001,90.011547578125,182.5752,94.213827578125,188.6875,98.843017578125C187.6975,99.503017578125,186.7075,100.163017578125,185.6875,100.843017578125C184.6975,99.853017578125,183.7075,98.863017578125,182.6875,97.843017578125C181.6975,98.833017578125,180.7075,99.823017578125,179.6875,100.843017578125C179.6875,100.183017578125,179.6875,99.523017578125,179.6875,98.843017578125C176.7175,98.348017578125,176.7175,98.348017578125,173.6875,97.843017578125C173.58437,97.224317578125,173.48125,96.605517578125,173.375,95.968017578125C172.81225,93.477757578125,172.81225,93.477757578125,169.6875,91.843017578125C169.6875,90.176347578125,169.6875,88.509687578125,169.6875,86.843017578125Z" fill="#6B9077" fill-opacity="1" style="mix-blend-mode:passthrough"/></g><g><path d="M57.6875,214.843017578125C59.0075,214.843017578125,60.3275,214.843017578125,61.6875,214.843017578125C64.3275,219.463017578125,66.9675,224.083017578125,69.6875,228.843017578125C68.6975,228.843017578125,67.7075,228.843017578125,66.6875,228.843017578125C66.6875,228.183017578125,66.6875,227.523017578125,66.6875,226.843017578125C65.75937,227.049317578125,64.83125,227.255517578125,63.875,227.468017578125C60.6875,227.843017578125,60.6875,227.843017578125,57.6875,225.843017578125C57.5625,223.530517578125,57.5625,223.530517578125,57.6875,220.843017578125C57.501875,219.935517578125,57.31625,219.028017578125,57.125,218.093017578125C56.980625,217.350517578125,56.83625,216.608017578125,56.6875,215.843017578125C57.0175,215.513017578125,57.3475,215.183017578125,57.6875,214.843017578125Z" fill="#1B2B1F" fill-opacity="1" style="mix-blend-mode:passthrough"/></g><g><path d="M234.6875,214.843017578125C236.3375,215.173017578125,237.9875,215.503017578125,239.6875,215.843017578125C239.6275,217.635617578125,239.5388,219.427277578125,239.4375,221.218017578125C239.3679,222.714617578125,239.3679,222.714617578125,239.2969,224.241457578125C238.6875,226.843017578125,238.6875,226.843017578125,236.82812,228.194617578125C234.6875,228.843017578125,234.6875,228.843017578125,231.6875,228.843017578125C231.6875,227.853017578125,231.6875,226.863017578125,231.6875,225.843017578125C230.6975,225.843017578125,229.7075,225.843017578125,228.6875,225.843017578125C230.6675,222.213017578125,232.6475,218.583017578125,234.6875,214.843017578125Z" fill="#19271C" fill-opacity="1" style="mix-blend-mode:passthrough"/></g></g></svg>