<svg width="200" height="200" viewBox="0 0 200 200" fill="none" xmlns="http://www.w3.org/2000/svg">
  <rect width="200" height="200" fill="#E5E7EB"/>
  <path d="M100 82C94.4772 82 90 86.4772 90 92C90 97.5228 94.4772 102 100 102C105.523 102 110 97.5228 110 92C110 86.4772 105.523 82 100 82Z" fill="#9CA3AF"/>
  <path d="M140 124L118 102L82 138L140 138L140 124Z" fill="#9CA3AF"/>
  <path d="M70 90L50 110L50 138L82 138L70 90Z" fill="#9CA3AF"/>
  <path fill-rule="evenodd" clip-rule="evenodd" d="M70 60H130C135.523 60 140 64.4772 140 70V130C140 135.523 135.523 140 130 140H70C64.4772 140 60 135.523 60 130V70C60 64.4772 64.4772 60 70 60ZM130 134C132.209 134 134 132.209 134 130V70C134 67.7909 132.209 66 130 66H70C67.7909 66 66 67.7909 66 70V130C66 132.209 67.7909 134 70 134H130Z" fill="#9CA3AF"/>
</svg>
